<?xml version="1.0" standalone="no"?>
<!DOCTYPE svg PUBLIC "-//W3C//DTD SVG 20010904//EN"
 "http://www.w3.org/TR/2001/REC-SVG-20010904/DTD/svg10.dtd">
<svg version="1.0" xmlns="http://www.w3.org/2000/svg"
 width="400.000000pt" height="400.000000pt" viewBox="0 0 400.000000 400.000000"
 preserveAspectRatio="xMidYMid meet">

<g transform="translate(0.000000,400.000000) scale(0.100000,-0.100000)"
fill="#000000" stroke="none">
<path d="M2718 3629 c23 -22 42 -45 42 -51 0 -6 7 -19 15 -28 8 -9 16 -27 17
-41 3 -24 2 -24 -87 -25 -79 -1 -98 -4 -155 -32 -36 -17 -75 -33 -85 -34 -34
-5 -29 16 7 34 20 9 56 38 81 63 l46 46 28 -20 c34 -24 90 -40 79 -22 -22 35
-175 77 -190 52 -20 -32 -130 -53 -153 -30 -8 8 -14 5 -22 -10 -10 -17 -16
-19 -31 -11 -16 8 -18 15 -10 35 5 14 7 25 3 25 -4 0 2 7 13 15 21 16 13 20
-14 5 -9 -5 -66 -12 -127 -16 l-109 -6 27 -24 c28 -24 29 -44 3 -44 -8 0 -39
-12 -70 -26 -35 -16 -67 -24 -84 -21 -14 3 -44 -3 -66 -14 -23 -10 -58 -21
-78 -24 -21 -3 -51 -17 -67 -31 -26 -21 -33 -23 -55 -13 -20 10 -31 10 -50 0
-14 -8 -36 -10 -55 -6 l-32 7 7 -40 c8 -54 -5 -73 -78 -112 -69 -37 -80 -47
-72 -71 6 -22 -66 -33 -82 -13 -6 8 -17 14 -24 14 -10 0 -9 4 1 17 13 15 10
16 -36 8 -27 -4 -78 -9 -113 -10 -50 -3 -72 -9 -105 -32 -36 -24 -52 -28 -119
-29 -46 -1 -87 -8 -105 -17 -15 -8 -59 -20 -96 -26 -38 -7 -81 -20 -95 -31
-15 -10 -67 -26 -115 -35 l-89 -17 -39 41 c-22 23 -44 41 -49 41 -18 0 -11
-24 15 -54 31 -36 31 -49 3 -68 -30 -20 -15 -38 27 -31 46 7 45 -8 -1 -60 -33
-36 -35 -41 -20 -52 20 -15 21 -49 0 -65 -11 -10 -14 -23 -8 -54 3 -23 11 -47
16 -53 6 -7 10 -49 9 -92 -1 -45 3 -82 9 -86 6 -3 7 0 4 9 -3 9 -3 24 2 34 4
9 12 35 18 56 9 32 18 42 46 52 19 6 34 17 32 24 -1 6 2 9 8 5 6 -4 18 -1 26
6 8 6 18 8 22 4 4 -4 -3 -14 -16 -22 -12 -9 -22 -26 -22 -39 0 -13 -4 -24 -9
-24 -5 0 -11 -9 -14 -20 -4 -17 0 -20 24 -20 19 0 29 -5 29 -15 0 -23 -28 -30
-49 -11 -24 22 -34 20 -21 -4 14 -27 -3 -58 -37 -66 -36 -10 -82 -63 -83 -97
0 -16 -7 -30 -16 -34 -19 -7 -151 -183 -165 -221 -19 -48 -31 -230 -17 -255 7
-12 11 -26 10 -30 -3 -9 48 -79 80 -110 13 -13 18 -33 18 -76 0 -45 7 -72 28
-112 21 -42 28 -49 30 -32 2 11 -4 37 -12 57 -17 42 -13 116 12 186 33 95 43
82 32 -43 -11 -135 6 -195 25 -84 7 45 27 45 36 0 9 -43 77 -104 109 -96 49
11 52 43 5 43 -14 0 -29 9 -35 20 -9 17 -8 20 9 20 11 0 23 -4 26 -10 3 -5 14
-10 24 -10 9 0 27 -13 38 -28 24 -32 41 -112 24 -112 -6 0 -11 5 -11 12 0 6
-2 9 -5 6 -10 -10 8 -39 21 -34 8 3 14 -1 14 -8 0 -7 14 -30 30 -51 17 -21 30
-45 30 -55 0 -9 12 -27 26 -41 21 -19 25 -30 20 -57 -3 -24 -1 -32 10 -32 9 0
14 10 14 27 0 64 63 147 206 271 81 70 104 77 104 32 0 -18 5 -30 13 -30 6 1
45 52 86 115 91 141 124 181 139 171 7 -4 12 -14 12 -23 0 -17 -82 -158 -145
-248 -69 -98 -68 -93 -44 -194 11 -50 22 -91 24 -91 2 0 10 6 17 13 7 6 39 29
70 50 32 20 64 46 70 57 15 24 162 150 174 150 5 0 21 10 34 23 14 12 47 33
73 46 43 22 61 41 38 41 -5 0 -11 9 -14 20 -6 23 8 25 66 9 36 -10 41 -8 80
22 23 18 56 49 73 68 l32 36 -18 55 c-10 30 -27 79 -39 108 -24 61 -26 99 -6
126 29 38 99 61 139 46 21 -8 26 -16 26 -45 0 -50 -16 -78 -41 -70 -15 5 -19
2 -19 -14 0 -25 32 -101 42 -101 10 0 -2 -31 -20 -53 -27 -31 -6 -28 34 6 21
18 59 47 84 64 52 35 296 154 355 173 43 13 145 71 145 81 0 13 -90 -10 -195
-50 -178 -67 -196 -76 -297 -153 -43 -32 -80 -58 -83 -58 -19 0 3 34 43 69
l49 40 9 88 c4 48 8 129 8 178 0 81 -3 95 -30 139 -46 76 -70 90 -163 91 -64
0 -83 -4 -100 -19 -12 -11 -24 -17 -27 -13 -13 12 9 49 44 72 88 60 222 10
273 -102 29 -64 49 -152 44 -192 -3 -20 -7 -73 -9 -118 -5 -92 3 -101 51 -64
25 20 183 84 238 96 73 16 173 75 220 130 26 31 67 69 93 87 l46 31 80 -16
c45 -10 102 -17 128 -17 78 0 279 -29 338 -49 170 -59 247 -93 299 -133 13
-10 29 -18 35 -18 13 0 10 180 -4 223 -6 18 -5 55 2 102 13 84 -2 174 -34 209
-12 13 -18 35 -18 66 0 39 -5 51 -33 78 -37 36 -67 42 -67 13 0 -11 5 -23 10
-26 13 -8 13 -55 0 -75 -7 -12 -10 -11 -15 5 -32 96 -50 128 -89 154 -38 27
-49 39 -76 81 -9 13 -13 11 -29 -9 -13 -17 -24 -21 -38 -17 -26 8 -34 33 -38
118 -3 52 0 68 11 72 17 7 36 -9 47 -38 5 -13 11 -16 18 -9 20 20 -77 133
-115 133 -10 0 -13 -6 -10 -15 4 -8 14 -15 24 -15 22 0 35 -30 18 -42 -21 -13
-44 -9 -69 11 -21 17 -22 21 -11 58 7 22 12 53 12 69 1 16 7 40 15 54 20 35
18 83 -4 109 l-19 22 -5 -23 c-3 -18 -5 -16 -6 9 -1 23 -14 46 -51 85 -41 43
-48 47 -37 23 8 -17 24 -39 36 -49 31 -28 26 -57 -14 -89 -39 -31 -46 -52 -14
-44 11 3 34 -2 50 -12 l29 -18 -21 -26 c-24 -32 -43 -34 -85 -8 -18 11 -42 21
-55 23 -17 2 -25 12 -30 35 -3 18 -23 51 -42 73 -20 22 -39 52 -42 67 -7 32
-39 100 -58 123 -17 21 -82 70 -93 70 -5 0 10 -19 34 -41z m-488 -109 c0 -5
-2 -10 -4 -10 -3 0 -8 5 -11 10 -3 6 -1 10 4 10 6 0 11 -4 11 -10z m422 -110
c-12 -12 -22 -30 -22 -41 0 -11 -7 -27 -15 -35 -11 -12 -12 -20 -3 -40 11 -23
13 -24 24 -9 10 14 15 14 33 4 11 -7 22 -24 26 -36 8 -32 25 -19 25 17 0 34
34 60 53 41 14 -14 74 -14 82 -1 12 19 45 11 45 -10 0 -11 -4 -20 -10 -20 -14
0 -13 -33 2 -48 18 -18 5 -23 -31 -12 -23 6 -39 5 -52 -3 -25 -15 -24 -47 1
-54 29 -8 25 -23 -6 -23 -33 0 -64 17 -64 35 0 18 -11 19 -44 3 -22 -9 -29 -8
-46 7 -11 10 -20 14 -20 9 -1 -17 -40 41 -40 59 0 9 -4 17 -10 17 -5 0 -10
-13 -10 -30 0 -21 -5 -30 -16 -30 -8 0 -12 -4 -9 -10 3 -5 1 -10 -5 -10 -7 0
-10 6 -7 14 6 15 -31 56 -50 56 -13 0 -23 -24 -23 -56 0 -32 -25 -41 -50 -19
-21 19 -24 16 -20 -24 3 -34 -22 -22 -32 16 -7 26 -17 34 -55 47 -26 9 -48 16
-50 16 -2 0 -3 -11 -3 -24 0 -14 -3 -27 -7 -29 -15 -9 -86 8 -89 21 -1 7 0 8
3 2 6 -12 33 -13 33 -1 0 5 -7 14 -15 21 -9 7 -15 29 -15 51 0 29 -4 39 -16
39 -12 0 -15 -11 -13 -55 3 -73 -10 -85 -47 -46 -16 16 -45 34 -64 38 -34 9
-35 11 -38 61 -2 29 -1 52 1 52 2 0 22 -9 45 -20 51 -25 56 -25 49 -1 -6 24
12 41 71 66 49 21 68 14 24 -9 -29 -15 -51 -51 -38 -63 10 -10 86 59 86 78 0
10 6 19 14 19 9 0 12 -7 9 -19 -3 -10 0 -22 6 -25 6 -4 11 -16 11 -26 0 -29
19 -34 39 -9 l18 23 12 -22 c14 -25 39 -28 67 -7 23 18 56 19 72 3 9 -9 18 -9
38 1 32 14 39 9 39 -32 0 -18 5 -33 10 -34 6 -2 10 6 10 16 0 11 3 23 8 27 4
4 7 22 7 40 0 29 6 36 38 53 45 23 67 11 34 -19z m153 4 c29 -19 32 -36 9 -55
-12 -10 -20 -10 -35 -1 -27 17 -39 15 -66 -9 -19 -19 -23 -20 -29 -6 -24 64
58 112 121 71z m-395 -9 c0 -2 -13 -11 -28 -19 -19 -10 -33 -11 -45 -5 -28 16
-20 24 28 27 25 1 45 0 45 -3z m-740 -49 c0 -8 -7 -21 -15 -29 -8 -8 -11 -17
-8 -21 4 -3 1 -6 -6 -6 -9 0 -11 8 -7 23 3 12 6 28 6 35 0 6 7 12 15 12 8 0
15 -6 15 -14z m1480 -23 c0 -24 -25 -9 -28 17 -3 21 -2 22 12 11 9 -7 16 -20
16 -28z m-1225 -86 c0 -26 -20 -25 -23 2 -3 16 1 22 10 19 7 -3 13 -12 13 -21z
m-268 -7 c2 0 3 -9 3 -20 0 -11 4 -20 10 -20 5 0 7 7 3 17 -6 14 -3 14 25 -3
55 -32 40 -40 -65 -35 -43 2 -53 0 -63 -18 -6 -12 -17 -21 -26 -21 -8 0 -27
-12 -41 -26 -15 -15 -29 -22 -34 -17 -6 6 0 15 15 22 13 7 31 31 39 52 10 26
23 40 41 45 16 4 26 13 26 24 0 16 4 17 32 9 18 -5 34 -9 35 -9z m333 -22 c0
-7 -5 -20 -10 -28 -12 -19 -35 2 -27 24 7 19 37 21 37 4z m984 -13 c19 -19 30
-19 46 0 11 14 16 10 38 -27 14 -24 24 -53 24 -65 -1 -13 7 -28 18 -35 11 -7
20 -19 20 -26 0 -19 -26 -42 -51 -47 -19 -4 -21 -1 -15 26 6 33 -7 50 -102
129 -38 32 -41 36 -25 47 22 17 28 16 47 -2z m-1706 -97 c-3 -7 -14 -14 -26
-16 -12 -2 -22 -8 -22 -13 0 -5 -20 -19 -44 -31 -34 -16 -48 -30 -60 -61 -15
-39 -16 -40 -57 -34 -22 3 -43 8 -46 10 -6 7 20 47 31 47 5 0 37 17 70 38 94
58 120 71 139 72 11 0 17 -5 15 -12z m-581 -94 c-3 -3 -12 -4 -19 -1 -8 3 -5
6 6 6 11 1 17 -2 13 -5z m689 -60 c-5 -26 -11 -33 -18 -26 -6 6 -8 25 -4 48 5
26 11 33 18 26 6 -6 8 -25 4 -48z m1778 -2 c5 -18 6 -35 2 -39 -11 -11 -61 32
-64 56 -3 19 0 22 24 19 22 -2 30 -10 38 -36z m-2656 -93 c39 -16 38 -38 -3
-58 -17 -8 -38 -18 -47 -23 -29 -13 -46 -9 -53 13 -5 16 1 30 26 55 18 19 36
33 39 31 3 -2 20 -10 38 -18z m397 -6 c-4 -10 -10 -30 -13 -45 -5 -34 -16 -35
-36 -6 -22 32 -20 43 12 55 39 16 45 15 37 -4z m-235 -68 c0 -10 -10 -15 -30
-15 -27 0 -30 -3 -30 -30 0 -30 -13 -40 -25 -20 -4 6 -11 8 -16 4 -5 -3 -7 -9
-5 -13 6 -9 -30 -51 -43 -51 -37 0 14 80 78 122 33 21 71 23 71 3z m-205 -61
c-45 -44 -49 -46 -62 -28 -19 26 -16 34 13 34 14 0 37 9 51 20 48 38 47 20 -2
-26z m3155 -268 c9 -25 3 -66 -10 -66 -11 0 -20 27 -20 61 0 35 17 38 30 5z
m-109 -93 c2 -23 0 -42 -7 -72 -4 -18 -8 -21 -17 -12 -6 6 -19 11 -29 11 -23
0 -23 3 8 50 29 43 43 50 45 23z m-1922 -279 c-67 -99 -140 -208 -164 -244
-24 -36 -52 -74 -64 -84 -21 -19 -21 -19 -21 0 0 29 31 81 147 247 187 267
214 301 221 273 2 -7 -52 -94 -119 -192z m409 101 c14 -56 12 -110 -3 -110 -5
0 -11 18 -12 41 -2 22 -9 59 -18 83 -14 39 -13 42 3 39 11 -2 21 -20 30 -53z
m-1768 -149 c0 -24 -16 -43 -27 -32 -8 8 6 56 17 56 6 0 10 -11 10 -24z m58
-51 c-3 -14 1 -33 8 -42 19 -25 17 -47 -8 -114 -23 -60 -42 -74 -53 -40 -10
31 -1 102 12 97 18 -7 23 5 12 26 -8 14 -8 23 0 31 6 6 11 24 11 39 0 15 5 28
11 28 7 0 9 -10 7 -25z m637 5 c16 -17 16 -20 3 -15 -9 4 -19 13 -22 21 -7 19
-2 18 19 -6z m199 -175 c15 -14 24 -30 21 -35 -9 -15 -23 -12 -45 10 -12 12
-25 18 -30 15 -15 -9 -12 2 6 19 19 20 16 21 48 -9z m-154 -103 c0 -11 -9 -18
-25 -18 -24 -2 -24 -1 -7 21 19 25 32 24 32 -3z m4 -111 c-17 -12 -45 -71 -35
-71 6 0 11 -5 11 -11 0 -6 -7 -9 -15 -5 -9 3 -15 0 -15 -10 0 -10 6 -14 15
-10 19 7 20 -21 1 -40 -8 -8 -21 -14 -29 -14 -8 0 -25 -16 -37 -36 -25 -44
-42 -35 -33 19 4 28 10 37 25 37 16 0 19 5 16 25 -3 14 -2 25 2 25 4 0 10 10
14 23 8 30 79 104 84 87 3 -7 1 -15 -4 -19z m-171 -92 c-4 -72 -9 -85 -28 -69
-27 23 -11 137 18 127 8 -3 11 -22 10 -58z"/>
<path d="M2207 3320 c-9 -19 5 -72 21 -78 7 -2 12 1 12 7 0 6 -4 11 -9 11 -6
0 -11 17 -13 38 -3 23 -6 32 -11 22z"/>
<path d="M2386 3254 c-8 -21 1 -34 23 -34 14 0 17 6 13 25 -5 28 -27 33 -36 9z"/>
<path d="M2364 3635 c11 -8 22 -12 25 -9 6 6 -19 24 -34 24 -5 -1 -1 -7 9 -15z"/>
<path d="M2424 3615 c-12 -29 19 -45 60 -29 25 9 19 21 -15 33 -40 14 -39 14
-45 -4z"/>
<path d="M1983 3540 c-24 -11 -43 -24 -43 -30 0 -13 2 -13 63 7 63 20 65 22
47 33 -19 12 -17 12 -67 -10z"/>
<path d="M2873 3488 c8 -24 12 -28 15 -15 5 23 -4 47 -17 47 -6 0 -5 -13 2
-32z"/>
<path d="M862 3316 c-27 -78 -28 -103 -3 -56 17 32 38 120 29 120 -2 0 -14
-29 -26 -64z"/>
<path d="M1370 3248 c-14 -6 -20 -12 -14 -15 7 -2 27 3 45 11 24 10 28 14 14
15 -11 0 -31 -5 -45 -11z"/>
<path d="M741 3219 c-18 -11 -31 -23 -28 -26 6 -5 77 34 77 43 0 9 -16 3 -49
-17z"/>
<path d="M680 3179 c0 -5 5 -7 10 -4 6 3 10 8 10 11 0 2 -4 4 -10 4 -5 0 -10
-5 -10 -11z"/>
<path d="M800 3179 c0 -5 5 -7 10 -4 6 3 10 8 10 11 0 2 -4 4 -10 4 -5 0 -10
-5 -10 -11z"/>
<path d="M3332 3018 c4 -31 25 -33 30 -3 4 20 1 25 -14 25 -14 0 -19 -6 -16
-22z"/>
<path d="M3263 3013 c-7 -2 -13 -14 -13 -25 0 -28 34 -19 38 10 3 22 -2 25
-25 15z"/>
<path d="M3456 2979 c-17 -28 -17 -32 -1 -49 9 -10 26 -20 37 -23 18 -5 20 -2
15 29 -8 48 18 45 34 -3 6 -21 22 -56 35 -78 40 -71 59 -126 44 -135 -8 -5 -8
-10 -2 -14 9 -5 38 46 55 96 4 11 12 15 22 12 31 -12 13 15 -49 72 -152 140
-160 144 -190 93z"/>
<path d="M3395 2918 c10 -34 53 -74 65 -62 7 7 2 18 -15 34 -14 13 -25 29 -25
37 0 7 -7 13 -16 13 -11 0 -14 -6 -9 -22z"/>
<path d="M273 2622 c-11 -15 -23 -39 -27 -52 -6 -22 -4 -21 23 10 17 19 31 43
31 53 0 23 -3 22 -27 -11z"/>
<path d="M470 2580 c0 -5 5 -10 11 -10 5 0 7 5 4 10 -3 6 -8 10 -11 10 -2 0
-4 -4 -4 -10z"/>
<path d="M85 2259 c-11 -17 1 -21 15 -4 8 9 8 15 2 15 -6 0 -14 -5 -17 -11z"/>
<path d="M2663 2226 c-25 -22 -26 -24 -6 -19 24 6 63 43 45 43 -6 0 -24 -11
-39 -24z"/>
<path d="M3017 2201 c-26 -3 -47 -10 -47 -16 0 -5 -5 -24 -11 -42 -8 -26 -7
-37 7 -58 l18 -27 -35 21 c-29 18 -33 25 -31 56 3 27 0 35 -13 35 -12 0 -16
-6 -13 -18 3 -10 -1 -27 -8 -37 -18 -24 -18 -35 -1 -35 8 0 22 -9 32 -20 18
-19 17 -20 -5 -20 -13 0 -32 8 -43 17 -18 17 -19 17 -28 0 -8 -14 -13 -15 -29
-5 -15 10 -26 9 -54 -5 -20 -9 -36 -23 -36 -31 0 -16 -27 -29 -41 -20 -5 3 -9
1 -9 -5 0 -6 -16 -13 -36 -17 -24 -4 -32 -10 -25 -17 7 -7 15 -6 26 3 12 10
15 10 15 -2 0 -17 -51 -68 -68 -68 -15 0 -15 13 0 28 10 10 7 12 -12 8 -14 -2
-31 -5 -39 -5 -11 -1 -11 -4 -1 -16 7 -8 9 -15 4 -15 -5 0 -3 -4 5 -9 11 -7 9
-13 -8 -30 -11 -11 -25 -21 -31 -21 -17 0 -11 28 8 33 14 4 14 5 -3 5 -11 1
-37 -16 -59 -37 -53 -52 -254 -145 -451 -208 -99 -31 -185 -62 -207 -74 -10
-5 -23 -9 -29 -9 -23 0 -234 -113 -295 -158 -67 -50 -79 -66 -40 -56 15 4 25
1 29 -9 4 -11 -24 -30 -107 -70 -62 -31 -119 -63 -126 -72 -7 -9 -26 -23 -41
-31 -26 -13 -138 -93 -182 -130 -59 -49 39 -8 184 77 103 59 378 185 470 215
181 57 169 54 169 38 0 -8 2 -14 5 -14 12 0 62 29 73 43 9 11 29 13 82 9 60
-4 70 -2 70 11 0 9 8 20 18 25 21 12 92 26 110 23 8 -1 27 12 44 29 16 17 36
29 43 26 8 -3 16 0 19 7 2 7 8 2 11 -10 4 -13 12 -23 19 -23 6 0 3 -5 -6 -11
-12 -7 -24 -6 -39 1 -28 15 -38 4 -13 -15 10 -8 16 -15 12 -16 -15 -3 -23 -6
-52 -18 -16 -6 -37 -9 -46 -6 -10 3 -21 1 -25 -5 -8 -12 -42 -13 -47 -1 -1 5
-12 -2 -22 -17 l-19 -25 36 6 c34 5 37 4 37 -19 0 -13 -3 -24 -7 -25 -5 -1
-33 -2 -64 -4 -31 -1 -74 -8 -95 -15 -86 -26 -101 -30 -128 -30 -17 0 -35 -9
-46 -22 -17 -22 -19 -22 -38 -5 -17 16 -22 16 -48 2 -16 -8 -46 -15 -66 -15
-40 0 -51 -9 -39 -29 7 -10 24 -11 70 -6 42 5 66 3 76 -5 8 -6 22 -9 32 -6 10
3 25 1 33 -4 17 -11 9 -12 -63 -13 -32 -1 -37 -4 -35 -21 2 -13 -3 -21 -12
-22 -43 -1 -98 -18 -117 -36 -21 -19 -23 -19 -76 -4 -64 19 -97 20 -97 6 0 -6
-6 -10 -12 -8 -7 1 -34 -8 -60 -20 -26 -12 -55 -22 -66 -22 -27 0 -33 -10 -21
-32 7 -12 18 -18 28 -15 10 2 29 -4 42 -14 27 -21 50 -26 31 -7 -22 22 -12 26
30 11 56 -19 98 -45 98 -59 0 -7 6 -14 13 -17 6 -2 9 -8 4 -12 -4 -5 -17 1
-30 13 -13 13 -36 22 -53 22 -17 0 -35 5 -42 12 -12 12 -13 10 -16 -12 -1 -13
-8 -14 -63 -6 -25 3 -51 2 -57 -3 -14 -11 -63 -24 -101 -26 -31 -2 -64 -13
-155 -52 -81 -34 -82 -36 -99 -81 -15 -41 -44 -57 -54 -29 -6 16 -74 -19 -88
-46 -29 -54 -79 -87 -79 -52 0 8 5 15 10 15 6 0 10 4 10 10 0 12 -46 -5 -66
-24 -8 -8 -14 -24 -14 -35 0 -16 6 -21 25 -21 26 0 34 -15 13 -23 -27 -10 168
-169 323 -263 503 -307 1105 -374 1669 -187 487 161 907 517 1135 962 l38 73
-31 25 c-29 22 -47 64 -22 48 6 -3 13 1 17 11 4 11 -2 24 -18 37 -13 11 -23
25 -21 32 1 8 -6 16 -16 19 -19 6 -76 99 -67 108 3 3 -4 13 -15 23 -11 10 -20
23 -20 29 0 6 -9 22 -20 36 -11 14 -20 28 -20 33 0 14 27 7 45 -13 23 -26 41
-25 48 1 3 12 11 19 18 17 19 -6 23 -28 5 -28 -32 0 -26 -23 16 -62 23 -23 47
-41 52 -39 5 1 6 -6 2 -15 -6 -15 26 -54 45 -54 4 0 11 -10 15 -22 3 -13 13
-31 22 -41 20 -22 25 -15 57 87 l25 78 -35 42 c-19 22 -45 51 -57 64 -12 13
-27 37 -33 55 -7 22 -17 33 -33 35 -16 3 -25 12 -29 33 -3 18 -15 34 -32 42
-30 14 -41 47 -15 47 9 0 22 -7 29 -16 6 -9 20 -14 31 -12 18 5 17 6 -4 14
-12 5 -56 42 -96 82 -70 68 -143 112 -186 112 -10 0 -25 7 -34 15 -22 23 -33
18 -40 -17 -4 -22 -2 -34 8 -40 7 -4 11 -17 9 -31 -4 -18 2 -26 22 -35 18 -9
25 -17 21 -30 -4 -12 3 -21 24 -30 33 -15 31 -34 -3 -29 -32 4 -48 17 -46 35
2 10 -19 40 -47 67 -89 92 -129 140 -126 152 4 16 -150 198 -168 199 -8 1 -36
-2 -63 -5z m586 -402 c-10 -4 -24 -2 -30 3 -23 19 -14 26 17 15 25 -10 27 -13
13 -18z m-81 -104 c4 -5 3 -14 -2 -19 -13 -13 -50 22 -50 47 0 20 0 20 23 1
12 -10 25 -23 29 -29z m-1142 -142 c0 -28 -61 -55 -75 -33 -3 6 0 10 8 10 8 0
20 7 27 15 13 15 40 21 40 8z m-920 -492 c0 -11 -26 -22 -34 -14 -12 12 -5 23
14 23 11 0 20 -4 20 -9z m-70 -35 c0 -3 -4 -8 -10 -11 -5 -3 -10 -1 -10 4 0 6
5 11 10 11 6 0 10 -2 10 -4z m-112 -133 c-10 -2 -28 -2 -40 0 -13 2 -5 4 17 4
22 1 32 -1 23 -4z m-233 -93 c-10 -11 -27 -20 -38 -20 -18 0 -17 2 4 20 33 27
58 27 34 0z m105 -9 c0 -12 -20 -25 -27 -18 -7 7 6 27 18 27 5 0 9 -4 9 -9z
m-200 -27 c0 -8 -9 -14 -20 -14 -22 0 -26 10 -8 28 13 13 28 7 28 -14z m0
-109 c0 -3 -9 -5 -20 -5 -11 0 -20 7 -20 15 0 13 4 14 20 5 11 -6 20 -13 20
-15z m-77 -107 c36 -18 11 -30 -63 -30 -41 0 -82 3 -90 5 -8 3 -28 10 -45 15
-23 8 -25 11 -10 12 29 2 56 8 61 12 7 8 129 -4 147 -14z"/>
<path d="M2355 1880 c3 -5 8 -10 11 -10 2 0 4 5 4 10 0 6 -5 10 -11 10 -5 0
-7 -4 -4 -10z"/>
<path d="M2255 1815 c-28 -13 -55 -25 -61 -25 -6 0 -19 -9 -28 -19 -10 -11
-38 -28 -62 -38 -43 -17 -57 -33 -31 -33 10 0 223 113 236 126 2 2 2 6 0 9 -3
2 -27 -7 -54 -20z"/>
</g>
</svg>
